<svg width="800" height="600" viewBox="0 0 800 600" fill="none" xmlns="http://www.w3.org/2000/svg">
  <rect width="800" height="600" fill="#E3BB56"/>
  <rect x="66" y="78" width="668" height="444" rx="34" fill="#FFF8E8"/>
  <rect x="110" y="130" width="580" height="120" rx="24" fill="#F5DD9B"/>
  <rect x="144" y="154" width="116" height="72" rx="18" fill="#FFFFFF"/>
  <rect x="292" y="154" width="116" height="72" rx="18" fill="#D9A21C"/>
  <rect x="440" y="154" width="116" height="72" rx="18" fill="#FFFFFF"/>
  <rect x="588" y="154" width="68" height="72" rx="18" fill="#D9A21C"/>
  <rect x="110" y="286" width="580" height="174" rx="28" fill="#E8BC47"/>
  <rect x="150" y="324" width="202" height="98" rx="24" fill="#FFF8E8"/>
  <rect x="384" y="324" width="266" height="24" rx="12" fill="#FFF8E8"/>
  <rect x="384" y="368" width="228" height="24" rx="12" fill="#FFF8E8"/>
  <rect x="384" y="412" width="190" height="24" rx="12" fill="#FFF8E8"/>
  <circle cx="240" cy="372" r="38" fill="#D9A21C"/>
  <rect x="212" y="396" width="56" height="16" rx="8" fill="#D9A21C"/>
</svg>
