<svg width="800" height="600" viewBox="0 0 800 600" fill="none" xmlns="http://www.w3.org/2000/svg">
  <rect width="800" height="600" fill="#8E1720"/>
  <rect x="0" y="0" width="800" height="218" fill="#B11F2C"/>
  <circle cx="628" cy="132" r="42" fill="#F6E3D8"/>
  <rect x="0" y="408" width="800" height="192" fill="#341115"/>
  <rect x="74" y="292" width="652" height="98" rx="28" fill="#F6E3D8"/>
  <rect x="110" y="328" width="128" height="26" rx="13" fill="#B11F2C"/>
  <rect x="258" y="328" width="128" height="26" rx="13" fill="#D44B58"/>
  <rect x="406" y="328" width="128" height="26" rx="13" fill="#B11F2C"/>
  <rect x="554" y="328" width="128" height="26" rx="13" fill="#D44B58"/>
  <rect x="126" y="212" width="76" height="196" fill="#4F171D"/>
  <rect x="226" y="160" width="106" height="248" fill="#5F1C22"/>
  <rect x="360" y="118" width="90" height="290" fill="#4F171D"/>
  <rect x="482" y="176" width="118" height="232" fill="#6A2027"/>
  <rect x="626" y="236" width="68" height="172" fill="#4F171D"/>
</svg>
