<svg width="800" height="600" viewBox="0 0 800 600" fill="none" xmlns="http://www.w3.org/2000/svg">
  <rect width="800" height="600" fill="#F8EECC"/>
  <rect x="0" y="0" width="800" height="218" fill="#F0CF73"/>
  <circle cx="628" cy="132" r="42" fill="#FFF8E3"/>
  <rect x="0" y="408" width="800" height="192" fill="#D6B367"/>
  <rect x="74" y="292" width="652" height="98" rx="28" fill="#FFF8E3"/>
  <rect x="110" y="328" width="128" height="26" rx="13" fill="#D89A16"/>
  <rect x="258" y="328" width="128" height="26" rx="13" fill="#EDC95A"/>
  <rect x="406" y="328" width="128" height="26" rx="13" fill="#D89A16"/>
  <rect x="554" y="328" width="128" height="26" rx="13" fill="#EDC95A"/>
  <rect x="126" y="212" width="76" height="196" fill="#B98A23"/>
  <rect x="226" y="160" width="106" height="248" fill="#C6972E"/>
  <rect x="360" y="118" width="90" height="290" fill="#B98A23"/>
  <rect x="482" y="176" width="118" height="232" fill="#D5A73F"/>
  <rect x="626" y="236" width="68" height="172" fill="#B98A23"/>
</svg>
